<svg width="100" height="100" viewBox="0 0 100 100" fill="none" xmlns="http://www.w3.org/2000/svg">
<path d="M0 50C0 22.3858 22.3858 0 50 0C77.6142 0 100 22.3858 100 50C100 77.6142 77.6142 100 50 100C22.3858 100 0 77.6142 0 50Z" fill="#7E6E45"/>
<path d="M27.1328 35H26.043V27.7754L23.8574 28.5781V27.5938L26.9629 26.4277H27.1328V35ZM30.4434 34.4316C30.4434 34.2441 30.498 34.0879 30.6074 33.9629C30.7207 33.8379 30.8887 33.7754 31.1113 33.7754C31.334 33.7754 31.502 33.8379 31.6152 33.9629C31.7324 34.0879 31.791 34.2441 31.791 34.4316C31.791 34.6113 31.7324 34.7617 31.6152 34.8828C31.502 35.0039 31.334 35.0645 31.1113 35.0645C30.8887 35.0645 30.7207 35.0039 30.6074 34.8828C30.498 34.7617 30.4434 34.6113 30.4434 34.4316ZM37.627 31.25C37.4004 31.5195 37.1289 31.7363 36.8125 31.9004C36.5 32.0645 36.1562 32.1465 35.7812 32.1465C35.2891 32.1465 34.8594 32.0254 34.4922 31.7832C34.1289 31.541 33.8477 31.2012 33.6484 30.7637C33.4492 30.3223 33.3496 29.8359 33.3496 29.3047C33.3496 28.7344 33.457 28.2207 33.6719 27.7637C33.8906 27.3066 34.1992 26.957 34.5977 26.7148C34.9961 26.4727 35.4609 26.3516 35.9922 26.3516C36.8359 26.3516 37.5 26.668 37.9844 27.3008C38.4727 27.9297 38.7168 28.7891 38.7168 29.8789V30.1953C38.7168 31.8555 38.3887 33.0684 37.7324 33.834C37.0762 34.5957 36.0859 34.9863 34.7617 35.0059H34.5508V34.0918H34.7793C35.6738 34.0762 36.3613 33.8438 36.8418 33.3945C37.3223 32.9414 37.584 32.2266 37.627 31.25ZM35.957 31.25C36.3203 31.25 36.6543 31.1387 36.959 30.916C37.2676 30.6934 37.4922 30.418 37.6328 30.0898V29.6562C37.6328 28.9453 37.4785 28.3672 37.1699 27.9219C36.8613 27.4766 36.4707 27.2539 35.998 27.2539C35.5215 27.2539 35.1387 27.4375 34.8496 27.8047C34.5605 28.168 34.416 28.6484 34.416 29.2461C34.416 29.8281 34.5547 30.3086 34.832 30.6875C35.1133 31.0625 35.4883 31.25 35.957 31.25ZM44.3184 28.6602L44.3477 29.3633C44.8125 28.8164 45.4395 28.543 46.2285 28.543C47.1152 28.543 47.7188 28.8828 48.0391 29.5625C48.25 29.2578 48.5234 29.0117 48.8594 28.8242C49.1992 28.6367 49.5996 28.543 50.0605 28.543C51.4512 28.543 52.1582 29.2793 52.1816 30.752V35H51.0977V30.8164C51.0977 30.3633 50.9941 30.0254 50.7871 29.8027C50.5801 29.5762 50.2324 29.4629 49.7441 29.4629C49.3418 29.4629 49.0078 29.584 48.7422 29.8262C48.4766 30.0645 48.3223 30.3867 48.2793 30.793V35H47.1895V30.8457C47.1895 29.9238 46.7383 29.4629 45.8359 29.4629C45.125 29.4629 44.6387 29.7656 44.377 30.3711V35H43.293V28.6602H44.3184ZM55 35H53.916V28.6602H55V35ZM53.8281 26.9785C53.8281 26.8027 53.8809 26.6543 53.9863 26.5332C54.0957 26.4121 54.2559 26.3516 54.4668 26.3516C54.6777 26.3516 54.8379 26.4121 54.9473 26.5332C55.0566 26.6543 55.1113 26.8027 55.1113 26.9785C55.1113 27.1543 55.0566 27.3008 54.9473 27.418C54.8379 27.5352 54.6777 27.5938 54.4668 27.5938C54.2559 27.5938 54.0957 27.5352 53.9863 27.418C53.8809 27.3008 53.8281 27.1543 53.8281 26.9785ZM57.918 35H56.834V26H57.918V35ZM60.8359 35H59.752V26H60.8359V35ZM63.7539 35H62.6699V28.6602H63.7539V35ZM62.582 26.9785C62.582 26.8027 62.6348 26.6543 62.7402 26.5332C62.8496 26.4121 63.0098 26.3516 63.2207 26.3516C63.4316 26.3516 63.5918 26.4121 63.7012 26.5332C63.8105 26.6543 63.8652 26.8027 63.8652 26.9785C63.8652 27.1543 63.8105 27.3008 63.7012 27.418C63.5918 27.5352 63.4316 27.5938 63.2207 27.5938C63.0098 27.5938 62.8496 27.5352 62.7402 27.418C62.6348 27.3008 62.582 27.1543 62.582 26.9785ZM65.207 31.7715C65.207 31.1504 65.3281 30.5918 65.5703 30.0957C65.8164 29.5996 66.1562 29.2168 66.5898 28.9473C67.0273 28.6777 67.5254 28.543 68.084 28.543C68.9473 28.543 69.6445 28.8418 70.1758 29.4395C70.7109 30.0371 70.9785 30.832 70.9785 31.8242V31.9004C70.9785 32.5176 70.8594 33.0723 70.6211 33.5645C70.3867 34.0527 70.0488 34.4336 69.6074 34.707C69.1699 34.9805 68.666 35.1172 68.0957 35.1172C67.2363 35.1172 66.5391 34.8184 66.0039 34.2207C65.4727 33.623 65.207 32.832 65.207 31.8477V31.7715ZM66.2969 31.9004C66.2969 32.6035 66.459 33.168 66.7832 33.5938C67.1113 34.0195 67.5488 34.2324 68.0957 34.2324C68.6465 34.2324 69.084 34.0176 69.4082 33.5879C69.7324 33.1543 69.8945 32.5488 69.8945 31.7715C69.8945 31.0762 69.7285 30.5137 69.3965 30.084C69.0684 29.6504 68.6309 29.4336 68.084 29.4336C67.5488 29.4336 67.1172 29.6465 66.7891 30.0723C66.4609 30.498 66.2969 31.1074 66.2969 31.9004ZM73.3633 28.6602L73.3984 29.457C73.8828 28.8477 74.5156 28.543 75.2969 28.543C76.6367 28.543 77.3125 29.2988 77.3242 30.8105V35H76.2402V30.8047C76.2363 30.3477 76.1309 30.0098 75.9238 29.791C75.7207 29.5723 75.4023 29.4629 74.9688 29.4629C74.6172 29.4629 74.3086 29.5566 74.043 29.7441C73.7773 29.9316 73.5703 30.1777 73.4219 30.4824V35H72.3379V28.6602H73.3633ZM39.0039 55.2324C39.3906 55.2324 39.7285 55.1152 40.0176 54.8809C40.3066 54.6465 40.4668 54.3535 40.498 54.002H41.5234C41.5039 54.3652 41.3789 54.7109 41.1484 55.0391C40.918 55.3672 40.6094 55.6289 40.2227 55.8242C39.8398 56.0195 39.4336 56.1172 39.0039 56.1172C38.1406 56.1172 37.4531 55.8301 36.9414 55.2559C36.4336 54.6777 36.1797 53.8887 36.1797 52.8887V52.707C36.1797 52.0898 36.293 51.541 36.5195 51.0605C36.7461 50.5801 37.0703 50.207 37.4922 49.9414C37.918 49.6758 38.4199 49.543 38.998 49.543C39.709 49.543 40.2988 49.7559 40.7676 50.1816C41.2402 50.6074 41.4922 51.1602 41.5234 51.8398H40.498C40.4668 51.4297 40.3105 51.0938 40.0293 50.832C39.752 50.5664 39.4082 50.4336 38.998 50.4336C38.4473 50.4336 38.0195 50.6328 37.7148 51.0312C37.4141 51.4258 37.2637 51.998 37.2637 52.748V52.9531C37.2637 53.6836 37.4141 54.2461 37.7148 54.6406C38.0156 55.0352 38.4453 55.2324 39.0039 55.2324ZM46.6562 56C46.5938 55.875 46.543 55.6523 46.5039 55.332C46 55.8555 45.3984 56.1172 44.6992 56.1172C44.0742 56.1172 43.5605 55.9414 43.1582 55.5898C42.7598 55.2344 42.5605 54.7852 42.5605 54.2422C42.5605 53.582 42.8105 53.0703 43.3105 52.707C43.8145 52.3398 44.5215 52.1562 45.4316 52.1562H46.4863V51.6582C46.4863 51.2793 46.373 50.9785 46.1465 50.7559C45.9199 50.5293 45.5859 50.416 45.1445 50.416C44.7578 50.416 44.4336 50.5137 44.1719 50.709C43.9102 50.9043 43.7793 51.1406 43.7793 51.418H42.6895C42.6895 51.1016 42.8008 50.7969 43.0234 50.5039C43.25 50.207 43.5547 49.9727 43.9375 49.8008C44.3242 49.6289 44.748 49.543 45.209 49.543C45.9395 49.543 46.5117 49.7266 46.9258 50.0938C47.3398 50.457 47.5547 50.959 47.5703 51.5996V54.5176C47.5703 55.0996 47.6445 55.5625 47.793 55.9062V56H46.6562ZM44.8574 55.1738C45.1973 55.1738 45.5195 55.0859 45.8242 54.9102C46.1289 54.7344 46.3496 54.5059 46.4863 54.2246V52.9238H45.6367C44.3086 52.9238 43.6445 53.3125 43.6445 54.0898C43.6445 54.4297 43.7578 54.6953 43.9844 54.8867C44.2109 55.0781 44.502 55.1738 44.8574 55.1738ZM52.334 50.6328C52.1699 50.6055 51.9922 50.5918 51.8008 50.5918C51.0898 50.5918 50.6074 50.8945 50.3535 51.5V56H49.2695V49.6602H50.3242L50.3418 50.3926C50.6973 49.8262 51.2012 49.543 51.8535 49.543C52.0645 49.543 52.2246 49.5703 52.334 49.625V50.6328ZM52.9551 52.7773C52.9551 51.8047 53.1855 51.0234 53.6465 50.4336C54.1074 49.8398 54.7109 49.543 55.457 49.543C56.1992 49.543 56.7871 49.7969 57.2207 50.3047V47H58.3047V56H57.3086L57.2559 55.3203C56.8223 55.8516 56.2188 56.1172 55.4453 56.1172C54.7109 56.1172 54.1113 55.8164 53.6465 55.2148C53.1855 54.6133 52.9551 53.8281 52.9551 52.8594V52.7773ZM54.0391 52.9004C54.0391 53.6191 54.1875 54.1816 54.4844 54.5879C54.7812 54.9941 55.1914 55.1973 55.7148 55.1973C56.4023 55.1973 56.9043 54.8887 57.2207 54.2715V51.3594C56.8965 50.7617 56.3984 50.4629 55.7266 50.4629C55.1953 50.4629 54.7812 50.668 54.4844 51.0781C54.1875 51.4883 54.0391 52.0957 54.0391 52.9004ZM63.6836 54.3184C63.6836 54.0254 63.5723 53.7988 63.3496 53.6387C63.1309 53.4746 62.7461 53.334 62.1953 53.2168C61.6484 53.0996 61.2129 52.959 60.8887 52.7949C60.5684 52.6309 60.3301 52.4355 60.1738 52.209C60.0215 51.9824 59.9453 51.7129 59.9453 51.4004C59.9453 50.8809 60.1641 50.4414 60.6016 50.082C61.043 49.7227 61.6055 49.543 62.2891 49.543C63.0078 49.543 63.5898 49.7285 64.0352 50.0996C64.4844 50.4707 64.709 50.9453 64.709 51.5234H63.6191C63.6191 51.2266 63.4922 50.9707 63.2383 50.7559C62.9883 50.541 62.6719 50.4336 62.2891 50.4336C61.8945 50.4336 61.5859 50.5195 61.3633 50.6914C61.1406 50.8633 61.0293 51.0879 61.0293 51.3652C61.0293 51.627 61.1328 51.8242 61.3398 51.957C61.5469 52.0898 61.9199 52.2168 62.459 52.3379C63.002 52.459 63.4414 52.6035 63.7773 52.7715C64.1133 52.9395 64.3613 53.1426 64.5215 53.3809C64.6855 53.6152 64.7676 53.9023 64.7676 54.2422C64.7676 54.8086 64.541 55.2637 64.0879 55.6074C63.6348 55.9473 63.0469 56.1172 62.3242 56.1172C61.8164 56.1172 61.3672 56.0273 60.9766 55.8477C60.5859 55.668 60.2793 55.418 60.0566 55.0977C59.8379 54.7734 59.7285 54.4238 59.7285 54.0488H60.8125C60.832 54.4121 60.9766 54.7012 61.2461 54.916C61.5195 55.127 61.8789 55.2324 62.3242 55.2324C62.7344 55.2324 63.0625 55.1504 63.3086 54.9863C63.5586 54.8184 63.6836 54.5957 63.6836 54.3184ZM32.3008 75.3184C32.3008 75.0254 32.1895 74.7988 31.9668 74.6387C31.748 74.4746 31.3633 74.334 30.8125 74.2168C30.2656 74.0996 29.8301 73.959 29.5059 73.7949C29.1855 73.6309 28.9473 73.4355 28.791 73.209C28.6387 72.9824 28.5625 72.7129 28.5625 72.4004C28.5625 71.8809 28.7812 71.4414 29.2188 71.082C29.6602 70.7227 30.2227 70.543 30.9062 70.543C31.625 70.543 32.207 70.7285 32.6523 71.0996C33.1016 71.4707 33.3262 71.9453 33.3262 72.5234H32.2363C32.2363 72.2266 32.1094 71.9707 31.8555 71.7559C31.6055 71.541 31.2891 71.4336 30.9062 71.4336C30.5117 71.4336 30.2031 71.5195 29.9805 71.6914C29.7578 71.8633 29.6465 72.0879 29.6465 72.3652C29.6465 72.627 29.75 72.8242 29.957 72.957C30.1641 73.0898 30.5371 73.2168 31.0762 73.3379C31.6191 73.459 32.0586 73.6035 32.3945 73.7715C32.7305 73.9395 32.9785 74.1426 33.1387 74.3809C33.3027 74.6152 33.3848 74.9023 33.3848 75.2422C33.3848 75.8086 33.1582 76.2637 32.7051 76.6074C32.252 76.9473 31.6641 77.1172 30.9414 77.1172C30.4336 77.1172 29.9844 77.0273 29.5938 76.8477C29.2031 76.668 28.8965 76.418 28.6738 76.0977C28.4551 75.7734 28.3457 75.4238 28.3457 75.0488H29.4297C29.4492 75.4121 29.5938 75.7012 29.8633 75.916C30.1367 76.127 30.4961 76.2324 30.9414 76.2324C31.3516 76.2324 31.6797 76.1504 31.9258 75.9863C32.1758 75.8184 32.3008 75.5957 32.3008 75.3184ZM35.8809 71.4277C36.3613 70.8379 36.9863 70.543 37.7559 70.543C39.0957 70.543 39.7715 71.2988 39.7832 72.8105V77H38.6992V72.8047C38.6953 72.3477 38.5898 72.0098 38.3828 71.791C38.1797 71.5723 37.8613 71.4629 37.4277 71.4629C37.0762 71.4629 36.7676 71.5566 36.502 71.7441C36.2363 71.9316 36.0293 72.1777 35.8809 72.4824V77H34.7969V68H35.8809V71.4277ZM42.584 77H41.5V70.6602H42.584V77ZM41.4121 68.9785C41.4121 68.8027 41.4648 68.6543 41.5703 68.5332C41.6797 68.4121 41.8398 68.3516 42.0508 68.3516C42.2617 68.3516 42.4219 68.4121 42.5312 68.5332C42.6406 68.6543 42.6953 68.8027 42.6953 68.9785C42.6953 69.1543 42.6406 69.3008 42.5312 69.418C42.4219 69.5352 42.2617 69.5938 42.0508 69.5938C41.8398 69.5938 41.6797 69.5352 41.5703 69.418C41.4648 69.3008 41.4121 69.1543 41.4121 68.9785ZM49.6797 73.9004C49.6797 74.8652 49.459 75.6426 49.0176 76.2324C48.5762 76.8223 47.9785 77.1172 47.2246 77.1172C46.4551 77.1172 45.8496 76.873 45.4082 76.3848V79.4375H44.3242V70.6602H45.3145L45.3672 71.3633C45.8086 70.8164 46.4219 70.543 47.207 70.543C47.9688 70.543 48.5703 70.8301 49.0117 71.4043C49.457 71.9785 49.6797 72.7773 49.6797 73.8008V73.9004ZM48.5957 73.7773C48.5957 73.0625 48.4434 72.498 48.1387 72.084C47.834 71.6699 47.416 71.4629 46.8848 71.4629C46.2285 71.4629 45.7363 71.7539 45.4082 72.3359V75.3652C45.7324 75.9434 46.2285 76.2324 46.8965 76.2324C47.416 76.2324 47.8281 76.0273 48.1328 75.6172C48.4414 75.2031 48.5957 74.5898 48.5957 73.7773ZM56.418 73.9004C56.418 74.8652 56.1973 75.6426 55.7559 76.2324C55.3145 76.8223 54.7168 77.1172 53.9629 77.1172C53.1934 77.1172 52.5879 76.873 52.1465 76.3848V79.4375H51.0625V70.6602H52.0527L52.1055 71.3633C52.5469 70.8164 53.1602 70.543 53.9453 70.543C54.707 70.543 55.3086 70.8301 55.75 71.4043C56.1953 71.9785 56.418 72.7773 56.418 73.8008V73.9004ZM55.334 73.7773C55.334 73.0625 55.1816 72.498 54.877 72.084C54.5723 71.6699 54.1543 71.4629 53.623 71.4629C52.9668 71.4629 52.4746 71.7539 52.1465 72.3359V75.3652C52.4707 75.9434 52.9668 76.2324 53.6348 76.2324C54.1543 76.2324 54.5664 76.0273 54.8711 75.6172C55.1797 75.2031 55.334 74.5898 55.334 73.7773ZM60.4316 77.1172C59.5723 77.1172 58.873 76.8359 58.334 76.2734C57.7949 75.707 57.5254 74.9512 57.5254 74.0059V73.8066C57.5254 73.1777 57.6445 72.6172 57.8828 72.125C58.125 71.6289 58.4609 71.2422 58.8906 70.9648C59.3242 70.6836 59.793 70.543 60.2969 70.543C61.1211 70.543 61.7617 70.8145 62.2188 71.3574C62.6758 71.9004 62.9043 72.6777 62.9043 73.6895V74.1406H58.6094C58.625 74.7656 58.8066 75.2715 59.1543 75.6582C59.5059 76.041 59.9512 76.2324 60.4902 76.2324C60.873 76.2324 61.1973 76.1543 61.4629 75.998C61.7285 75.8418 61.9609 75.6348 62.1602 75.377L62.8223 75.8926C62.291 76.709 61.4941 77.1172 60.4316 77.1172ZM60.2969 71.4336C59.8594 71.4336 59.4922 71.5938 59.1953 71.9141C58.8984 72.2305 58.7148 72.6758 58.6445 73.25H61.8203V73.168C61.7891 72.6172 61.6406 72.1914 61.375 71.8906C61.1094 71.5859 60.75 71.4336 60.2969 71.4336ZM63.9004 73.7773C63.9004 72.8047 64.1309 72.0234 64.5918 71.4336C65.0527 70.8398 65.6562 70.543 66.4023 70.543C67.1445 70.543 67.7324 70.7969 68.166 71.3047V68H69.25V77H68.2539L68.2012 76.3203C67.7676 76.8516 67.1641 77.1172 66.3906 77.1172C65.6562 77.1172 65.0566 76.8164 64.5918 76.2148C64.1309 75.6133 63.9004 74.8281 63.9004 73.8594V73.7773ZM64.9844 73.9004C64.9844 74.6191 65.1328 75.1816 65.4297 75.5879C65.7266 75.9941 66.1367 76.1973 66.6602 76.1973C67.3477 76.1973 67.8496 75.8887 68.166 75.2715V72.3594C67.8418 71.7617 67.3438 71.4629 66.6719 71.4629C66.1406 71.4629 65.7266 71.668 65.4297 72.0781C65.1328 72.4883 64.9844 73.0957 64.9844 73.9004ZM72.1504 74.5918H71.1719L71.0957 68.4688H72.2324L72.1504 74.5918ZM71.0547 76.4551C71.0547 76.2793 71.1074 76.1328 71.2129 76.0156C71.3223 75.8945 71.4824 75.834 71.6934 75.834C71.9043 75.834 72.0645 75.8945 72.1738 76.0156C72.2832 76.1328 72.3379 76.2793 72.3379 76.4551C72.3379 76.6309 72.2832 76.7773 72.1738 76.8945C72.0645 77.0078 71.9043 77.0645 71.6934 77.0645C71.4824 77.0645 71.3223 77.0078 71.2129 76.8945C71.1074 76.7773 71.0547 76.6309 71.0547 76.4551Z" fill="#EAE7D9"/>
</svg>
